<svg xmlns="http://www.w3.org/2000/svg" width="1600" height="1600" preserveAspectRatio="xMidYMid meet" version="1.0" viewBox="0 0 1200 1200"><metadata>Created by potrace 1.11, written by Peter Selinger 2001-2013</metadata><g fill="#000" stroke="none"><path d="M3804 8996 l-34 -34 0 -2970 0 -2970 29 -31 29 -31 899 0 c836 0 899 2 919 18 12 9 27 27 33 39 8 16 11 822 11 2983 l0 2962 -34 34 -34 34 -892 0 -892 0 -34 -34z" transform="translate(0.000000,1200.000000) scale(0.100000,-0.100000)"/><path d="M6390 6462 c-20 -10 -42 -32 -52 -52 -17 -33 -18 -135 -18 -1693 0 -1788 -2 -1703 51 -1741 21 -14 107 -16 915 -16 l892 0 31 26 31 26 0 941 c0 784 -2 956 -15 1026 -127 723 -673 1296 -1386 1455 -114 25 -280 46 -368 46 -25 0 -62 -8 -81 -18z" transform="translate(0.000000,1200.000000) scale(0.100000,-0.100000)"/></g></svg>